<?xml version="1.0" encoding="utf-8"?>
<svg version="1.1" xmlns="http://www.w3.org/2000/svg" xmlns:xlink="http://www.w3.org/1999/xlink" x="0px" y="0px"
  viewBox="0 0 612 792" style="enable-background:new 0 0 612 792;" xml:space="preserve">
  <style type="text/css">
    .black {
      fill: #000000;
    }
    
    .white {
      fill: #FFFFFF;
    }

    .grey {
      fill: #A6A6A6;
    }

    .grey-gradient {
      fill: url(#gradient);
    }
  </style>

  <g id="layer_1">
    <path class="black" d="M431.87,358.34c0,70.76-58.24,128.99-128.99,128.99c-70.76,0-129-58.24-129-128.99s58.24-128.99,129-128.99 C373.63,229.35,431.87,287.58,431.87,358.34z" />

    <!-- Small Stars -->
    <path class="white" d="M304.65,241.07c0,0.58-0.47,1.05-1.05,1.05c-0.58,0-1.05-0.47-1.05-1.05s0.47-1.05,1.05-1.05 C304.17,240.02,304.65,240.49,304.65,241.07z" />
    <path class="white" d="M311.92,256.99c0,0.71-0.58,1.29-1.29,1.29c-0.71,0-1.29-0.58-1.29-1.29c0-0.71,0.58-1.29,1.29-1.29 C311.34,255.7,311.92,256.28,311.92,256.99z" />
    <path class="white" d="M330.84,283.01c0,0.71-0.58,1.29-1.29,1.29c-0.71,0-1.29-0.58-1.29-1.29c0-0.71,0.58-1.29,1.29-1.29 C330.25,281.72,330.84,282.31,330.84,283.01z" />
    <path class="white" d="M300.45,265.96c0,0.58-0.47,1.05-1.05,1.05c-0.58,0-1.05-0.47-1.05-1.05c0-0.58,0.47-1.05,1.05-1.05 C299.97,264.91,300.45,265.38,300.45,265.96z" />
    <circle class="white" cx="310.71" cy="271.94" r="1.05" />
    <path class="white" d="M297.05,255.21c0,0.71-0.58,1.29-1.29,1.29c-0.71,0-1.29-0.58-1.29-1.29c0-0.71,0.58-1.29,1.29-1.29 C296.47,253.92,297.05,254.5,297.05,255.21z" />
    <circle class="white" cx="278.87" cy="265.64" r="1.05" />
    <path class="white" d="M282.99,267.74c0,0.58-0.47,1.05-1.05,1.05c-0.58,0-1.05-0.47-1.05-1.05c0-0.58,0.47-1.05,1.05-1.05 C282.51,266.69,282.99,267.16,282.99,267.74z" />
    <path class="white" d="M286.06,269.84c0,0.58-0.47,1.05-1.05,1.05s-1.05-0.47-1.05-1.05c0-0.58,0.47-1.05,1.05-1.05 S286.06,269.26,286.06,269.84z" />
    <path class="white" d="M281.37,273.88c0,0.58-0.47,1.05-1.05,1.05s-1.05-0.47-1.05-1.05c0-0.58,0.47-1.05,1.05-1.05 S281.37,273.31,281.37,273.88z" />
    <path class="white" d="M256.96,291.02c0,0.58-0.47,1.05-1.05,1.05c-0.58,0-1.05-0.47-1.05-1.05c0-0.58,0.47-1.05,1.05-1.05 C256.49,289.97,256.96,290.44,256.96,291.02z" />
    <ellipse transform="matrix(0.1602 -0.9871 0.9871 0.1602 -73.9627 506.0916)" class="white" cx="260.44" cy="296.51" rx="1.05" ry="1.05" />
    <path class="white" d="M257.93,385.26c0,0.58-0.47,1.05-1.05,1.05c-0.58,0-1.05-0.47-1.05-1.05c0-0.58,0.47-1.05,1.05-1.05 C257.46,384.21,257.93,384.68,257.93,385.26z" />
    <path class="white" d="M258.58,409.75c0,0.71-0.58,1.29-1.29,1.29c-0.71,0-1.29-0.58-1.29-1.29c0-0.71,0.58-1.29,1.29-1.29 C258,408.45,258.58,409.04,258.58,409.75z" />
    <path class="white" d="M244.68,422.27c0,0.58-0.47,1.05-1.05,1.05c-0.58,0-1.05-0.47-1.05-1.05c0-0.58,0.47-1.05,1.05-1.05 C244.2,421.22,244.68,421.7,244.68,422.27z" />
    <path class="white" d="M228.03,427.37c0,0.71-0.58,1.29-1.29,1.29s-1.29-0.58-1.29-1.29c0-0.71,0.58-1.29,1.29-1.29 S228.03,426.66,228.03,427.37z" />
    <path class="white" d="M224.63,416.05c0,0.71-0.58,1.29-1.29,1.29s-1.29-0.58-1.29-1.29c0-0.71,0.58-1.29,1.29-1.29 S224.63,415.34,224.63,416.05z" />
    <path class="white" d="M222.69,423.24c0,0.58-0.47,1.05-1.05,1.05c-0.58,0-1.05-0.47-1.05-1.05c0-0.58,0.47-1.05,1.05-1.05 C222.22,422.19,222.69,422.67,222.69,423.24z" />
    <path class="white" d="M210.25,417.26c0,0.58-0.47,1.05-1.05,1.05c-0.58,0-1.05-0.47-1.05-1.05c0-0.58,0.47-1.05,1.05-1.05 C209.77,416.21,210.25,416.69,210.25,417.26z" />
    <circle class="white" cx="252.68" cy="437.47" r="1.05" />
    <path class="white" d="M266.82,427.85c0,0.71-0.58,1.29-1.29,1.29c-0.71,0-1.29-0.58-1.29-1.29c0-0.71,0.58-1.29,1.29-1.29 C266.24,426.56,266.82,427.14,266.82,427.85z" />
    <path class="white" d="M268.28,440.22c0,0.58-0.47,1.05-1.05,1.05c-0.58,0-1.05-0.47-1.05-1.05c0-0.58,0.47-1.05,1.05-1.05 C267.8,439.17,268.28,439.64,268.28,440.22z" />
    <path class="white" d="M322.11,428.42c0,0.58-0.47,1.05-1.05,1.05s-1.05-0.47-1.05-1.05c0-0.58,0.47-1.05,1.05-1.05 S322.11,427.84,322.11,428.42z" />
    <path class="white" d="M297.05,437.31c0,0.58-0.47,1.05-1.05,1.05c-0.58,0-1.05-0.47-1.05-1.05c0-0.58,0.47-1.05,1.05-1.05 C296.58,436.26,297.05,436.73,297.05,437.31z" />
    <path class="white" d="M364.46,450.08c0,0.58-0.47,1.05-1.05,1.05c-0.57,0-1.05-0.47-1.05-1.05c0-0.58,0.47-1.05,1.05-1.05 C363.99,449.03,364.46,449.5,364.46,450.08z" />
    <path class="white" d="M369.95,400.37c0,0.71-0.58,1.29-1.29,1.29c-0.71,0-1.29-0.58-1.29-1.29c0-0.71,0.58-1.29,1.29-1.29 C369.37,399.08,369.95,399.66,369.95,400.37z" />
    <path class="white" d="M359.61,407.4c0,0.58-0.47,1.05-1.05,1.05c-0.58,0-1.05-0.47-1.05-1.05c0-0.58,0.47-1.05,1.05-1.05 C359.14,406.35,359.61,406.83,359.61,407.4z" />
    <path class="white" d="M369.79,409.42c0,0.71-0.58,1.29-1.29,1.29c-0.71,0-1.29-0.58-1.29-1.29c0-0.71,0.58-1.29,1.29-1.29 C369.21,408.13,369.79,408.71,369.79,409.42z" />
    <path class="white" d="M359.61,421.95c0,0.58-0.47,1.05-1.05,1.05c-0.58,0-1.05-0.47-1.05-1.05s0.47-1.05,1.05-1.05 C359.14,420.9,359.61,421.37,359.61,421.95z" />
    <circle class="white" cx="384.91" cy="393.34" r="1.05" />
    <path class="white" d="M388.54,399.72c0,0.71-0.58,1.29-1.29,1.29c-0.71,0-1.29-0.58-1.29-1.29c0-0.71,0.58-1.29,1.29-1.29 C387.96,398.43,388.54,399.01,388.54,399.72z" />
    <path class="white" d="M406.65,407.32c0,0.71-0.58,1.29-1.29,1.29c-0.71,0-1.29-0.58-1.29-1.29c0-0.71,0.58-1.29,1.29-1.29 C406.07,406.03,406.65,406.61,406.65,407.32z" />
    <path class="white" d="M388.22,420.82c0,0.58-0.47,1.05-1.05,1.05s-1.05-0.47-1.05-1.05c0-0.58,0.47-1.05,1.05-1.05 S388.22,420.24,388.22,420.82z" />
    <circle class="white" cx="398.81" cy="409.83" r="1.05" />
    <path class="white" d="M397.76,426.8c0,0.58-0.47,1.05-1.05,1.05c-0.58,0-1.05-0.47-1.05-1.05c0-0.58,0.47-1.05,1.05-1.05 C397.28,425.75,397.76,426.22,397.76,426.8z" />

    <!-- Big Stars -->
    <path class="white" d="M327.29,253.99c0.18-0.66,0.71-1.17,1.38-1.32l0.37-2.77l0.54,2.79c0.65,0.18,1.15,0.71,1.3,1.38l2.8,0.4 l-2.83,0.5c-0.18,0.64-0.69,1.14-1.34,1.3l-0.47,2.85l-0.48-2.87c-0.63-0.18-1.12-0.69-1.28-1.33l-2.7-0.44L327.29,253.99z" />
    <path class="white" d="M254.82,452.28c0.18-0.66,0.71-1.17,1.38-1.32l0.37-2.77l0.54,2.79c0.65,0.18,1.15,0.71,1.3,1.38l2.8,0.4 l-2.83,0.5c-0.18,0.64-0.69,1.14-1.34,1.29l-0.48,2.85l-0.48-2.87c-0.63-0.18-1.12-0.69-1.28-1.33l-2.7-0.44L254.82,452.28z" />
    <path class="white" d="M388.1,426.72c0.18-0.66,0.71-1.17,1.38-1.32l0.37-2.77l0.54,2.79c0.65,0.18,1.15,0.71,1.3,1.38l2.8,0.4 l-2.83,0.5c-0.18,0.64-0.69,1.14-1.34,1.29l-0.48,2.85l-0.48-2.87c-0.63-0.18-1.12-0.69-1.28-1.33l-2.7-0.44L388.1,426.72z" />
    <path class="white" d="M398.65,398.21c0.18-0.66,0.71-1.17,1.38-1.32l0.37-2.77l0.54,2.79c0.65,0.18,1.15,0.71,1.3,1.38l2.8,0.4 l-2.83,0.5c-0.18,0.64-0.69,1.14-1.34,1.3l-0.48,2.85l-0.48-2.87c-0.63-0.18-1.12-0.69-1.28-1.33l-2.7-0.44L398.65,398.21z" />
    <path class="white" d="M267.75,292.9c0.18-0.66,0.71-1.17,1.38-1.32l0.37-2.77l0.54,2.79c0.65,0.18,1.15,0.71,1.3,1.38l2.8,0.4 l-2.83,0.5c-0.18,0.64-0.69,1.14-1.34,1.3l-0.47,2.85l-0.48-2.87c-0.63-0.18-1.12-0.69-1.28-1.33l-2.7-0.44L267.75,292.9z" />

    <!-- Orbit, Head -->
    <path class="white" d="M259.2,352.92c9.53,16.65,20.64,28.83,29.59,40.41c7.94,10.27,23.42,15.42,17.96,20.3 c-6.14,5.5-21.01-18.75-21.01-18.75c-9.88-11.92-19.34-24.56-28.99-41.1L259.2,352.92z" />

    <!-- Vector, Top Swoosh -->
    <path class="grey" d="M158.45,396.61c46.04-30.24,126.4-49.76,192.59-76.04c50.29-19.96,95-45.02,119.04-79.53 c-60.92,124.08-230.57,109.4-308.32,156.73L158.45,396.61z" />
    
    <!-- Wordmark -->
    <g>
      <!-- A -->
      <path class="white" d="M281.19,364.35l-6.67-16.91l-4.89,16.91H281.19z M265.5,335.08h23.06l16.53,41.63l5.51,5.53h-30.02l5.51-5.53 l-1.96-5.08h-16.57l-1.7,5.81l3.95,4.8h-15.66l5.51-5.53l10.62-36.82L265.5,335.08z" />
      <!-- A -->
      <path class="white" d="M389.2,364.35l-6.67-16.91l-4.89,16.91H389.2z M372.63,335.08h23.93l16.53,41.63l5.51,5.53h-30.02l5.51-5.53 l-1.96-5.08h-16.57l-1.71,5.81l3.95,4.8h-15.66l5.51-5.53l10.62-36.82L372.63,335.08z" />
      <!-- N -->
      <path class="white" d="M234.2,364.46c0-2.04,0-24.56,0-24.56l-4.79-4.82h15.95l-4.79,4.82v36.82l5.51,5.53h-20.96l-18.06-30.54 c0,1.17,0,25.01,0,25.01l4.64,5.53h-16.68l5.51-5.53V339.9l-4.79-4.82h20.88L234.2,364.46z" />
      <!-- S -->
      <path class="white" d="M355,347.18l-0.49-14.69l-4.94,3.41c-6.96-2.44-15.07-2.34-20.76,0.35c-5.29,2.5-11,7.79-10.31,15.31 c0.7,7.52,6.52,10.42,11.77,12.8c6.76,3.06,14.11,4.1,14,8.14c-0.07,2.57-4.34,4.42-7.66,4.31c-3.03-0.1-12.88-0.83-18.04-6.96 l0.98,15.45l5.5-4.04c6.69,2.37,14.79,3.36,22.28,0.91c7.45-2.43,15.29-8.67,10.94-19.56c-1.87-4.69-7.02-7.58-10.1-8.84 c-2.81-1.15-11.4-4.53-13.79-5.78c-2.8-1.46-2.49-6.09,4.25-7.03C344.73,340.13,353.18,345.02,355,347.18z" />
    </g>

    <!-- Vector, Bottom Swoosh -->
    <linearGradient id="gradient" gradientUnits="userSpaceOnUse" x1="215.3251" y1="476.6219" x2="472.4707" y2="219.4762">
      <stop offset="0" style="stop-color:#B1B3B6" />
      <stop offset="0.5692" style="stop-color:#B1B3B6" />
      <stop offset="0.6629" style="stop-color:#B1B3B6" />
      <stop offset="0.7865" style="stop-color:#000000" />
    </linearGradient>
    <path class="grey-gradient" d="M194.1,469.01c92.47-94.38,230.31-137.98,275.97-227.98c-27.5,87.5-174.78,135.76-276.22,232.42L194.1,469.01z" />
    
    <!-- Orbit, Tail -->
    <path class="white" d="M256.75,353.77c-1.08-1.86-2.17-3.76-3.26-5.72c-24.65-44.35-21.1-89.61,23.52-69.89 c37.87,16.74,74.04,63.69,88.58,97.03c6.74,15.45,24.81,76.09-33.38,51.52l-0.12-0.35c54.96,22.63,45.46-34.72,16.04-78.69 c-16.65-24.88-38.36-45.6-52.05-55.61c-45.59-33.3-73.39-12.93-41.38,52.37c1.45,2.96,2.96,5.78,4.5,8.48L256.75,353.77z" />
  </g>
</svg>